# xmcd
#
# Track frame offsets:
#	150
#	13451
#	32112
#	46441
#	62468
#	75349
#	103827
#	120991
#	136149
#	149605
#	163456
#	185141
#	196175
#	216209
#	228183
#	245308
#
# Disc length: 3479 seconds
#
# Revision: 1
# Processed by: cddbd v1.5.2PL0 Copyright (c) Steve Scherf et al.
# Submitted via: audiograbber 1.83.01
#
DISCID=e20d9510
DTITLE=Dinner Ballads - Dinner Ballads
DYEAR=1900
DGENRE=
TTITLE0=Marvin Gaye - How Sweet It Is
TTITLE1=Lionel Richie - Hello
TTITLE2=Cal Tjader - The Way You Look Tonight
TTITLE3=Ella Fitzgerald - Let's Do It
TTITLE4=Fred Astaire - Puttin' On The Ritz
TTITLE5=Bryan Adams - Let's Make A Night To Remember
TTITLE6=Blossom Dearie - Gentleman Friend
TTITLE7=Chet Baker - Easy Living
TTITLE8=Nina Simone - This Year's Kisses
TTITLE9=Anita O'Day - Peel Me A Grape
TTITLE10=Herb Ellis and The Oscar Peterson Trio - Exactly Like This
TTITLE11=Dinah Wadhington, Quincy Jones and His Orchestra - Makin' Whoopee
TTITLE12=Paul Desmond and Don Sebesky Orchestra - Samba With Some Barbecue
TTITLE13=The Platters - Smoke Gets In Your Eyes
TTITLE14=The Temptations - Just My Imagination
TTITLE15=Stéphane Grappelli - Are You In The Mood?
EXTD=
EXTT0=
EXTT1=
EXTT2=
EXTT3=
EXTT4=
EXTT5=
EXTT6=
EXTT7=
EXTT8=
EXTT9=
EXTT10=
EXTT11=
EXTT12=
EXTT13=
EXTT14=
EXTT15=
PLAYORDER=
